HIERARCHY
ROOT Hips
{
	OFFSET -0.001795 -0.223333 0.028219
	CHANNELS 6 Xposition Yposition Zposition Zrotation Yrotation Xrotation 
	JOINT LeftUpLeg
	{
		OFFSET 0.069520 -0.091406 -0.006815
		CHANNELS 3 Zrotation Yrotation Xrotation
		JOINT LeftLeg
		{
			OFFSET 0.034277 -0.375199 -0.004496
			CHANNELS 3 Zrotation Yrotation Xrotation
			JOINT LeftFoot
			{
				OFFSET -0.013596 -0.397961 -0.043693
				CHANNELS 3 Zrotation Yrotation Xrotation
				JOINT LeftToe
				{
					OFFSET 0.026358 -0.055791 0.119288
					CHANNELS 3 Zrotation Yrotation Xrotation
					End Site
					{
						OFFSET 0.000000 0.000000 0.000000
					}
				}
			}
		}
	}
	JOINT RightUpLeg
	{
		OFFSET -0.067670 -0.090522 -0.004320
		CHANNELS 3 Zrotation Yrotation Xrotation
		JOINT RightLeg
		{
			OFFSET -0.038290 -0.382569 -0.008850
			CHANNELS 3 Zrotation Yrotation Xrotation
			JOINT RightFoot
			{
				OFFSET 0.015774 -0.398415 -0.042312
				CHANNELS 3 Zrotation Yrotation Xrotation
				JOINT RightToe
				{
					OFFSET -0.025372 -0.048144 0.123348
					CHANNELS 3 Zrotation Yrotation Xrotation
					End Site
					{
						OFFSET 0.000000 0.000000 0.000000
					}
				}
			}
		}
	}
	JOINT Spine
	{
		OFFSET -0.002533 0.108963 -0.026696
		CHANNELS 3 Zrotation Yrotation Xrotation
		JOINT Spine1
		{
			OFFSET 0.005487 0.135180 0.001092
			CHANNELS 3 Zrotation Yrotation Xrotation
			JOINT Spine2
			{
				OFFSET 0.001457 0.052922 0.025425
				CHANNELS 3 Zrotation Yrotation Xrotation
				JOINT Neck
				{
					OFFSET -0.002778 0.213870 -0.042857
					CHANNELS 3 Zrotation Yrotation Xrotation
					JOINT Head
					{
						OFFSET 0.005152 0.064970 0.051349
						CHANNELS 3 Zrotation Yrotation Xrotation
						End Site
						{
							OFFSET 0.000000 0.000000 0.000000
						}
					}
				}
				JOINT LeftShoulder
				{
					OFFSET 0.078845 0.121749 -0.034090
					CHANNELS 3 Zrotation Yrotation Xrotation
					JOINT LeftArm
					{
						OFFSET 0.090977 0.030469 -0.008868
						CHANNELS 3 Zrotation Yrotation Xrotation
						JOINT LeftForeArm
						{
							OFFSET 0.259612 -0.012772 -0.027456
							CHANNELS 3 Zrotation Yrotation Xrotation
							JOINT LeftHand
							{
								OFFSET 0.249234 0.008986 -0.001171
								CHANNELS 3 Zrotation Yrotation Xrotation
								End Site
								{
									OFFSET 0.000000 0.000000 0.000000
								}
							}
						}
					}
				}
				JOINT RightShoulder
				{
					OFFSET -0.081759 0.118833 -0.038615
					CHANNELS 3 Zrotation Yrotation Xrotation
					JOINT RightArm
					{
						OFFSET -0.096012 0.032551 -0.009143
						CHANNELS 3 Zrotation Yrotation Xrotation
						JOINT RightForeArm
						{
							OFFSET -0.253742 -0.013329 -0.021401
							CHANNELS 3 Zrotation Yrotation Xrotation
							JOINT RightHand
							{
								OFFSET -0.255298 0.007772 -0.005559
								CHANNELS 3 Zrotation Yrotation Xrotation
								End Site
								{
									OFFSET 0.000000 0.000000 0.000000
								}
							}
						}
					}
				}
			}
		}
	}
}
MOTION
Frames: 17
Frame Time: 0.050000
0.837563 0.913640 0.141475 -3.154586 31.672931 -1.934921 -7.419453 1.168130 12.062138 -16.766157 0.794095 11.128311 9.806003 18.698056 8.127034 0.000000 0.000000 0.000000 16.536607 3.304817 -18.672062 5.406380 -1.955665 12.271267 -9.982543 -19.377951 15.420671 0.000000 0.000000 0.000000 10.005956 -5.955045 26.192852 -4.547748 1.789911 -28.370002 -7.118659 -8.497370 31.680399 9.968216 -0.964164 -39.183144 0.000000 0.000000 0.000000 -11.889698 -15.797078 4.996156 -34.203096 -23.434454 0.267972 -21.296621 -56.122218 12.360573 0.000000 0.000000 0.000000 19.304820 -8.159688 -3.313783 45.262300 1.328820 -6.743403 19.527803 32.177153 7.832291 0.000000 0.000000 0.000000 
0.888029 0.908163 0.149326 -2.051449 29.479279 -2.544717 -3.255361 0.605834 7.840822 -28.791076 2.984144 23.290970 6.958728 16.473023 13.196687 0.000000 0.000000 0.000000 14.127968 3.036627 -17.475611 4.211549 -2.096249 17.502506 -9.039753 -19.833339 8.477297 0.000000 0.000000 0.000000 11.933475 -6.243408 25.868588 -4.977767 1.959610 -27.362330 -5.634594 -5.052468 29.643113 8.804359 -0.109617 -38.661456 0.000000 0.000000 0.000000 -14.006207 -16.783297 4.937488 -34.702767 -20.580998 -0.050499 -24.346443 -52.878761 12.675064 0.000000 0.000000 0.000000 19.017576 -6.374741 -1.881575 45.602461 3.705532 -5.888188 16.845020 35.806413 8.108422 0.000000 0.000000 0.000000 
0.932194 0.906595 0.155441 -1.655521 28.784199 -4.119102 4.295399 -0.252845 2.380118 -39.740819 7.078213 36.244406 11.942700 23.132139 17.983326 0.000000 0.000000 0.000000 11.174437 2.548508 -15.492286 4.332104 -2.774400 21.884803 -8.400755 -19.572792 5.223499 0.000000 0.000000 0.000000 12.890511 -6.997492 27.599353 -4.726131 1.914786 -27.781650 -4.716505 -1.784774 28.742186 9.301581 -0.195550 -36.104221 0.000000 0.000000 0.000000 -15.239041 -16.375637 4.009621 -35.067753 -19.579977 0.057034 -27.862548 -49.530542 12.877680 0.000000 0.000000 0.000000 20.184634 -4.319784 0.009104 44.488761 8.311456 -4.463950 13.475063 37.064166 7.438433 0.000000 0.000000 0.000000 
0.972914 0.909366 0.158651 -0.207493 27.880752 -4.433239 9.449119 -0.677666 -3.512632 -42.436924 10.241709 45.181593 16.575643 28.908368 17.280307 0.000000 0.000000 0.000000 6.278743 1.709697 -12.330451 5.194128 -3.088913 22.201791 -6.844502 -17.171929 1.530521 0.000000 0.000000 0.000000 12.040114 -6.600711 27.737304 -4.526748 1.933008 -26.970598 -2.956953 1.367947 28.279492 9.791239 -0.091697 -35.568979 0.000000 0.000000 0.000000 -15.852976 -18.092643 4.110264 -34.816087 -17.690274 -0.121021 -26.994542 -47.537862 11.486229 0.000000 0.000000 0.000000 20.215423 -2.953206 1.423861 44.574296 11.949349 -3.312474 10.313138 39.064720 6.977541 0.000000 0.000000 0.000000 
1.012563 0.916996 0.159287 2.208737 25.231824 -3.755290 13.117057 -0.804369 -7.840164 -38.027980 10.107543 47.495476 17.775736 30.944334 14.817372 0.000000 0.000000 0.000000 1.660841 1.033868 -10.517728 3.793021 -2.255475 22.196730 -4.727511 -12.169071 0.145167 0.000000 0.000000 0.000000 10.329038 -6.070740 28.776408 -4.824514 1.965160 -27.124130 -2.231490 5.012167 27.632808 11.089870 -0.444184 -35.240035 0.000000 0.000000 0.000000 -16.313449 -17.146105 3.055716 -33.668514 -14.759204 -0.570945 -28.131658 -48.821570 11.917997 0.000000 0.000000 0.000000 20.618275 -2.790092 2.011140 43.300097 14.677302 -2.443363 9.950142 40.506543 7.258418 0.000000 0.000000 0.000000 
1.053211 0.925807 0.157557 4.414944 23.176786 -2.788393 15.227861 -0.774756 -9.963166 -28.820345 6.650053 43.942058 15.109454 27.769367 13.679795 0.000000 0.000000 0.000000 -3.736521 0.276818 -8.246905 2.834850 -1.507364 20.721088 -3.566928 -9.219237 0.275965 0.000000 0.000000 0.000000 8.921255 -5.355665 28.565875 -5.530733 2.096265 -26.946214 -2.096860 6.378433 27.536690 9.548125 0.215925 -34.051828 0.000000 0.000000 0.000000 -17.620769 -16.235911 2.382504 -31.263382 -13.183993 -0.764146 -28.280099 -49.083937 12.089144 0.000000 0.000000 0.000000 21.090673 -1.985179 2.589049 41.964292 16.543001 -1.888796 10.297990 43.563520 8.049728 0.000000 0.000000 0.000000 
1.095212 0.930457 0.154510 5.485651 20.150834 -1.162892 16.907935 -0.748108 -8.973175 -18.725883 3.082321 32.270321 11.814667 23.468559 12.657662 0.000000 0.000000 0.000000 -7.246003 -0.065971 -8.561019 1.515016 -0.758900 19.990557 -2.322050 -6.052592 0.685693 0.000000 0.000000 0.000000 9.037224 -4.868405 27.310745 -5.840793 2.135531 -26.684070 -2.777095 8.009350 27.556512 9.318502 0.279988 -33.146547 0.000000 0.000000 0.000000 -16.250148 -14.890474 1.915598 -30.052630 -12.076985 -1.005329 -28.996204 -50.924896 12.748737 0.000000 0.000000 0.000000 19.618326 -1.841972 2.472113 42.597221 17.992564 -1.176320 12.397777 47.053329 10.064520 0.000000 0.000000 0.000000 
1.138369 0.929502 0.151538 6.297081 17.509834 -0.075595 18.407807 -0.851199 -5.849624 -9.381080 0.877599 17.171918 6.451978 16.636071 15.512502 0.000000 0.000000 0.000000 -11.262784 -0.476887 -9.156391 1.523958 -0.624100 20.880340 -1.474407 -3.837517 0.221944 0.000000 0.000000 0.000000 8.487759 -4.293047 26.208055 -6.528518 2.240655 -26.656223 -2.806628 8.839517 27.463729 8.844673 0.542117 -33.838142 0.000000 0.000000 0.000000 -14.827393 -13.263738 1.564978 -27.965401 -11.510345 -1.177170 -30.504149 -52.772025 13.987745 0.000000 0.000000 0.000000 19.827241 -2.431754 2.022216 40.976821 18.473278 -1.116892 16.144841 50.913411 12.991151 0.000000 0.000000 0.000000 
1.183248 0.923314 0.148494 5.760561 15.583855 -0.294329 21.083163 -1.024159 -3.912128 -2.464405 0.023313 6.607753 -0.641592 8.768985 21.735701 0.000000 0.000000 0.000000 -13.407083 -0.644806 -8.422180 1.133941 -0.345959 20.456466 -0.411519 -1.206946 0.426856 0.000000 0.000000 0.000000 7.682633 -3.683593 24.835406 -5.499715 2.056820 -26.005858 -3.326386 9.395819 28.070562 9.853295 -0.021122 -33.880849 0.000000 0.000000 0.000000 -13.095750 -11.888556 1.346962 -26.667609 -12.032517 -1.169888 -31.222962 -54.164817 14.643976 0.000000 0.000000 0.000000 20.082252 -1.976492 2.254507 40.058603 19.155813 -0.972693 19.063960 54.373890 15.621702 0.000000 0.000000 0.000000 
1.230593 0.913744 0.144267 5.446255 13.200371 -0.930057 21.746393 -0.968065 -2.772443 1.582331 -0.337752 3.536516 -5.833272 2.419872 23.910390 0.000000 0.000000 0.000000 -16.317783 -0.855667 -7.969490 0.246337 0.092526 20.747562 0.941746 2.537381 -0.409619 0.000000 0.000000 0.000000 6.526114 -3.114605 24.101517 -6.363728 2.270148 -25.359937 -2.154348 9.360352 28.215291 11.120046 -1.031315 -33.142761 0.000000 0.000000 0.000000 -12.558064 -12.405538 1.989432 -23.764481 -11.380705 -1.273543 -30.171263 -54.495652 14.454775 0.000000 0.000000 0.000000 20.370144 -2.429051 1.716240 39.179986 18.863060 -1.149807 21.132759 55.955073 17.181914 0.000000 0.000000 0.000000 
1.281706 0.904294 0.137784 3.242393 11.759986 -1.538156 22.578450 -0.947217 -2.338005 0.814835 -0.313541 4.824869 -5.432035 1.430398 20.798764 0.000000 0.000000 0.000000 -17.267157 -0.928113 -8.637008 -1.023291 0.573155 22.251035 2.687957 6.069919 1.452226 0.000000 0.000000 0.000000 6.794837 -2.926890 22.907078 -5.200223 2.015071 -25.062245 -2.819914 9.305538 29.119738 12.439469 -2.126901 -31.752152 0.000000 0.000000 0.000000 -10.760900 -11.494573 2.054794 -22.839627 -11.726220 -1.357503 -29.408476 -54.137683 13.941930 0.000000 0.000000 0.000000 21.151759 -2.062103 1.885712 37.504574 19.378329 -1.204245 20.804003 56.636418 16.958619 0.000000 0.000000 0.000000 
1.337051 0.897069 0.128413 2.248195 9.087417 -2.137344 20.860132 -0.676969 -1.803500 0.361760 -0.399547 7.749156 -3.165666 1.761705 14.742814 0.000000 0.000000 0.000000 -19.531823 -1.128084 -10.088328 -1.922085 1.036304 22.187475 4.668105 8.190300 5.920462 0.000000 0.000000 0.000000 5.623891 -2.578953 23.254079 -5.336704 1.998373 -25.545095 -1.830819 9.037808 29.783964 12.627609 -2.508800 -31.916872 0.000000 0.000000 0.000000 -10.821632 -11.572113 2.402541 -23.135252 -11.838654 -1.471616 -27.445438 -54.964520 13.552656 0.000000 0.000000 0.000000 20.446723 -3.112198 0.798645 38.313557 19.442157 -1.111524 23.261239 56.530438 18.318410 0.000000 0.000000 0.000000 
1.394148 0.898435 0.115979 1.628026 7.639581 -2.047017 18.790448 -0.409834 -3.027905 -1.763911 -0.160406 11.031452 0.235840 5.060641 9.823831 0.000000 0.000000 0.000000 -21.645035 -1.258083 -10.242685 -2.168488 1.126875 19.795877 6.628993 8.602575 12.297011 0.000000 0.000000 0.000000 4.614964 -2.241082 22.799313 -5.720318 2.089027 -24.983361 -1.274190 8.302978 29.961315 12.913069 -2.796122 -32.705397 0.000000 0.000000 0.000000 -10.864348 -12.334652 3.010402 -24.891510 -12.247063 -1.615587 -24.332933 -54.087749 12.141988 0.000000 0.000000 0.000000 21.866756 -2.929062 0.650010 37.750404 18.213369 -1.553879 20.475998 57.120910 16.593807 0.000000 0.000000 0.000000 
1.447837 0.908184 0.101432 1.335386 6.063984 -1.157545 16.400282 -0.223060 -4.807305 -3.602515 0.188914 12.854832 1.477188 6.380577 8.028259 0.000000 0.000000 0.000000 -24.320906 -1.582625 -12.115529 -2.077742 1.065111 17.234319 8.097908 6.864051 20.276538 0.000000 0.000000 0.000000 3.090574 -1.822580 22.433191 -4.800588 1.852176 -24.988106 -1.446513 8.284925 30.509000 12.688145 -2.900803 -32.287170 0.000000 0.000000 0.000000 -12.118670 -12.096840 2.980440 -26.915913 -12.069018 -1.817341 -25.260268 -53.657005 12.850020 0.000000 0.000000 0.000000 23.624235 -3.123365 0.418014 38.012500 17.873032 -1.758428 18.588800 56.232668 15.078005 0.000000 0.000000 0.000000 
1.493532 0.924372 0.087406 0.292631 4.003776 -0.666569 14.618059 -0.150471 -4.988022 -4.531944 0.453495 11.297512 3.142659 9.658525 10.105249 0.000000 0.000000 0.000000 -23.536045 -1.329373 -13.020157 -2.340745 1.086857 15.074053 6.447061 2.293240 23.822179 0.000000 0.000000 0.000000 2.341655 -1.568629 22.181425 -4.242872 1.722740 -23.387418 -1.840250 9.149341 29.545607 13.440797 -3.402877 -31.743652 0.000000 0.000000 0.000000 -12.029962 -12.601721 3.249559 -29.857561 -10.861903 -2.172618 -22.862931 -54.036551 11.890951 0.000000 0.000000 0.000000 24.698877 -3.408323 0.120608 39.970307 16.016677 -2.169571 18.302214 56.367165 14.985038 0.000000 0.000000 0.000000 
1.530193 0.938812 0.075038 -1.217773 3.329805 -0.285261 13.723085 -0.151761 -5.009612 -4.141412 0.402158 9.501933 3.450727 10.523851 11.858440 0.000000 0.000000 0.000000 -20.974543 -1.029289 -13.971434 0.388769 0.488645 17.647349 2.458956 -2.964277 20.661490 0.000000 0.000000 0.000000 1.619288 -1.411020 22.194277 -3.353600 1.497038 -22.711112 -1.660760 8.888308 29.308244 12.525584 -3.139186 -30.867328 0.000000 0.000000 0.000000 -12.370911 -12.364746 3.231478 -32.142623 -10.175678 -2.499168 -22.505574 -55.478326 12.295624 0.000000 0.000000 0.000000 23.756771 -3.001939 0.138369 42.461730 15.023517 -2.295935 18.812103 55.356852 14.963324 0.000000 0.000000 0.000000 
1.559803 0.949049 0.064278 -2.005851 3.164676 0.050357 12.196304 -0.188276 -4.690657 -3.071173 0.238721 7.154525 3.584818 11.042339 13.321852 0.000000 0.000000 0.000000 -17.357472 -0.569302 -14.001198 1.831927 0.125988 20.372001 -0.255460 -6.516225 17.255480 0.000000 0.000000 0.000000 1.609462 -1.487876 23.228393 -3.860478 1.623635 -22.309996 -1.827629 8.459235 28.242469 12.717886 -3.343747 -30.610034 0.000000 0.000000 0.000000 -12.827371 -12.055876 3.136555 -33.000630 -10.147648 -2.520078 -22.141574 -56.864269 12.604649 0.000000 0.000000 0.000000 23.827156 -2.574459 0.237691 43.676315 14.910762 -2.211239 19.485924 53.652684 14.696085 0.000000 0.000000 0.000000 
